REM DIRINDEX 1\2\5,1\2\6,1\2\7,1\2\8,1\3\9,1\3\10,1\3\11,1\4\12,1\4\13,1\4\14,1\4\15,1\4\16
REM DIRNAME folder01,folder02,folder03,folder04,folder05,folder06,folder07,folder08,folder09,folder10,folder11,folder12,folder13,folder14,folder15,folder16
TITLE ""
FILE "1200_sec03_0977_0985.mp3" MP3
  TRACK 01 AUDIO
    TITLE "0:"
    INDEX 01 00:00:00
  TRACK 02 AUDIO
    TITLE "12:cjc034_07588"
    INDEX 01 00:00:17
  TRACK 03 AUDIO
    TITLE "0:"
    INDEX 01 00:01:34
  TRACK 04 AUDIO
    TITLE "13:cjc034_07589"
    INDEX 01 00:01:69
  TRACK 05 AUDIO
    TITLE "0:"
    INDEX 01 00:03:06
  TRACK 06 AUDIO
    TITLE "14:cjc034_07590"
    INDEX 01 00:03:35
  TRACK 07 AUDIO
    TITLE "0:"
    INDEX 01 00:04:52
  TRACK 08 AUDIO
    TITLE "15:cjc034_07591"
    INDEX 01 00:05:10
  TRACK 09 AUDIO
    TITLE "0:"
    INDEX 01 00:09:16
  TRACK 10 AUDIO
    TITLE "12:cjc034_07592"
    INDEX 01 00:10:53
  TRACK 11 AUDIO
    TITLE "0:"
    INDEX 01 00:11:66
  TRACK 12 AUDIO
    TITLE "13:cjc034_07593"
    INDEX 01 00:12:22
  TRACK 13 AUDIO
    TITLE "0:"
    INDEX 01 00:15:13
  TRACK 14 AUDIO
    TITLE "14:cjc034_07594"
    INDEX 01 00:15:48
  TRACK 15 AUDIO
    TITLE "0:"
    INDEX 01 00:16:63
  TRACK 16 AUDIO
    TITLE "15:cjc034_07595"
    INDEX 01 00:17:23
  TRACK 17 AUDIO
    TITLE "0:"
    INDEX 01 00:20:63
  TRACK 18 AUDIO
    TITLE "12:cjc034_07596"
    INDEX 01 00:22:21
  TRACK 19 AUDIO
    TITLE "0:"
    INDEX 01 00:23:32
  TRACK 20 AUDIO
    TITLE "13:cjc034_07597"
    INDEX 01 00:23:67
  TRACK 21 AUDIO
    TITLE "0:"
    INDEX 01 00:25:09
  TRACK 22 AUDIO
    TITLE "14:cjc034_07598"
    INDEX 01 00:25:43
  TRACK 23 AUDIO
    TITLE "0:"
    INDEX 01 00:26:56
  TRACK 24 AUDIO
    TITLE "15:cjc034_07599"
    INDEX 01 00:27:14
  TRACK 25 AUDIO
    TITLE "0:"
    INDEX 01 00:30:40
  TRACK 26 AUDIO
    TITLE "12:cjc034_07600"
    INDEX 01 00:31:71
  TRACK 27 AUDIO
    TITLE "0:"
    INDEX 01 00:33:07
  TRACK 28 AUDIO
    TITLE "13:cjc034_07601"
    INDEX 01 00:33:38
  TRACK 29 AUDIO
    TITLE "0:"
    INDEX 01 00:36:03
  TRACK 30 AUDIO
    TITLE "14:cjc034_07602"
    INDEX 01 00:36:35
  TRACK 31 AUDIO
    TITLE "0:"
    INDEX 01 00:37:44
  TRACK 32 AUDIO
    TITLE "15:cjc034_07603"
    INDEX 01 00:38:02
  TRACK 33 AUDIO
    TITLE "0:"
    INDEX 01 00:41:12
  TRACK 34 AUDIO
    TITLE "12:cjc034_07604"
    INDEX 01 00:42:43
  TRACK 35 AUDIO
    TITLE "0:"
    INDEX 01 00:43:68
  TRACK 36 AUDIO
    TITLE "13:cjc034_07605"
    INDEX 01 00:44:22
  TRACK 37 AUDIO
    TITLE "0:"
    INDEX 01 00:46:51
  TRACK 38 AUDIO
    TITLE "14:cjc034_07606"
    INDEX 01 00:47:09
  TRACK 39 AUDIO
    TITLE "0:"
    INDEX 01 00:48:34
  TRACK 40 AUDIO
    TITLE "15:cjc034_07607"
    INDEX 01 00:48:65
  TRACK 41 AUDIO
    TITLE "0:"
    INDEX 01 00:52:32
  TRACK 42 AUDIO
    TITLE "12:cjc034_07608"
    INDEX 01 00:53:68
  TRACK 43 AUDIO
    TITLE "0:"
    INDEX 01 00:55:18
  TRACK 44 AUDIO
    TITLE "13:cjc034_07609"
    INDEX 01 00:55:50
  TRACK 45 AUDIO
    TITLE "0:"
    INDEX 01 00:58:38
  TRACK 46 AUDIO
    TITLE "14:cjc034_07610"
    INDEX 01 00:58:71
  TRACK 47 AUDIO
    TITLE "0:"
    INDEX 01 01:00:21
  TRACK 48 AUDIO
    TITLE "15:cjc034_07611"
    INDEX 01 01:00:53
  TRACK 49 AUDIO
    TITLE "0:"
    INDEX 01 01:04:07
  TRACK 50 AUDIO
    TITLE "12:cjc034_07612"
    INDEX 01 01:05:40
  TRACK 51 AUDIO
    TITLE "0:"
    INDEX 01 01:06:67
  TRACK 52 AUDIO
    TITLE "13:cjc034_07613"
    INDEX 01 01:07:27
  TRACK 53 AUDIO
    TITLE "0:"
    INDEX 01 01:10:31
  TRACK 54 AUDIO
    TITLE "14:cjc034_07614"
    INDEX 01 01:10:63
  TRACK 55 AUDIO
    TITLE "0:"
    INDEX 01 01:12:15
  TRACK 56 AUDIO
    TITLE "15:cjc034_07615"
    INDEX 01 01:12:50
  TRACK 57 AUDIO
    TITLE "0:"
    INDEX 01 01:15:31
  TRACK 58 AUDIO
    TITLE "12:cjc034_07616"
    INDEX 01 01:16:71
  TRACK 59 AUDIO
    TITLE "0:"
    INDEX 01 01:18:11
  TRACK 60 AUDIO
    TITLE "13:cjc034_07617"
    INDEX 01 01:18:51
  TRACK 61 AUDIO
    TITLE "0:"
    INDEX 01 01:21:59
  TRACK 62 AUDIO
    TITLE "14:cjc034_07618"
    INDEX 01 01:22:17
  TRACK 63 AUDIO
    TITLE "0:"
    INDEX 01 01:23:32
  TRACK 64 AUDIO
    TITLE "15:cjc034_07619"
    INDEX 01 01:23:69
  TRACK 65 AUDIO
    TITLE "0:"
    INDEX 01 01:29:72
  TRACK 66 AUDIO
    TITLE "12:cjc034_07620"
    INDEX 01 01:31:30
  TRACK 67 AUDIO
    TITLE "0:"
    INDEX 01 01:32:47
  TRACK 68 AUDIO
    TITLE "13:cjc034_07621"
    INDEX 01 01:33:03
  TRACK 69 AUDIO
    TITLE "0:"
    INDEX 01 01:34:10
  TRACK 70 AUDIO
    TITLE "14:cjc034_07622"
    INDEX 01 01:34:42
  TRACK 71 AUDIO
    TITLE "0:"
    INDEX 01 01:35:59
  TRACK 72 AUDIO
    TITLE "15:cjc034_07623"
    INDEX 01 01:36:17
  TRACK 73 AUDIO
    TITLE "0:"
    INDEX 01 01:39:53
